{"title":"Shaolin Warrior 2013 DVDRip x264 AC3-AVeNGeRZ [P2PDL]","uid":9393594,"size":1348437756,"categoryP":"video","categoryS":"movies","magnet":"?xt=urn:btih:ee00d16378060d702a9b50d31ea1feab194119f0&amp;dn=Shaolin+Warrior+2013+DVDRip+x264+AC3-AVeNGeRZ+%5BP2PDL%5D&amp;tr=udp%3A%2F%2Ftracker.openbittorrent.com%3A80&amp;tr=udp%3A%2F%2Fopen.demonii.com%3A1337&amp;tr=udp%3A%2F%2Ftracker.coppersurfer.tk%3A6969&amp;tr=udp%3A%2F%2Fexodus.desync.com%3A6969","seeders":0,"leechers":1,"uploader":"ValidusVyto","files":4,"time":1387932135,"description":"Shaolin.Warrior.2013.DVDRip.x264.AC3-AVeNGeRZ\n\nInfo:\nGeneral\nUnique ID                                : 180167608264958032140551808660120702845 (0x878B04E8C225EAAAA3AC75369F2A8F7D)\nComplete name                            : Shaolin.Warrior.2013.DVDRip.x264.AC3-AVeNGeRZ.[P2PDL]/Shaolin Warrior 2013 DVDRip x264 AC3-AVeNGeRZ.mkv\nFormat                                   : Matroska\nFormat version                           : Version 2\nFile size                                : 1.25 GiB\nDuration                                 : 1h 31mn\nOverall bit rate mode                    : Variable\nOverall bit rate                         : 1 956 Kbps\nEncoded date                             : UTC 2013-12-24 06:21:20\nWriting application                      : mkvmerge v6.5.0 ('Isn't she lovely') built on Oct 20 2013 12:50:05\nWriting library                          : libebml v1.3.0 + libmatroska v1.4.1\n\nVideo\nID                                       : 1\nFormat                                   : AVC\nFormat/Info                              : Advanced Video Codec\nFormat profile                           : &lt;a class=&quot;__cf_email__&quot; href=&quot;/cdn-cgi/l/email-protection&quot; data-cfemail=&quot;e9a1808e81a9a5ddc7d8&quot;&gt;[email&amp;#160;protected]&lt;/a&gt;&lt;script cf-hash='f9e31' type=&quot;text/javascript&quot;&gt;\n/* &lt;![CDATA[ */!function(){try{var t=&quot;currentScript&quot;in document?document.currentScript:function(){for(var t=document.getElementsByTagName(&quot;script&quot;),e=t.length;e--;)if(t[e].getAttribute(&quot;cf-hash&quot;))return t[e]}();if(t&amp;&amp;t.previousSibling){var e,r,n,i,c=t.previousSibling,a=c.getAttribute(&quot;data-cfemail&quot;);if(a){for(e=&quot;&quot;,r=parseInt(a.substr(0,2),16),n=2;a.length-n;n+=2)i=parseInt(a.substr(n,2),16)^r,e+=String.fromCharCode(i);e=document.createTextNode(e),c.parentNode.replaceChild(e,c)}}}catch(u){}}();/* ]]&gt; */&lt;/script&gt;\nFormat settings, CABAC                   : Yes\nFormat settings, ReFrames                : 3 frames\nCodec ID                                 : V_MPEG4/ISO/AVC\nDuration                                 : 1h 31mn\nBit rate mode                            : Variable\nBit rate                                 : 1 533 Kbps\nMaximum bit rate                         : 40.0 Mbps\nWidth                                    : 720 pixels\nHeight                                   : 400 pixels\nDisplay aspect ratio                     : 16:9\nFrame rate mode                          : Constant\nFrame rate                               : 23.976 fps\nColor space                              : YUV\nChroma subsampling                       : 4:2:0\nBit depth                                : 8 bits\nScan type                                : Progressive\nBits/(Pixel*Frame)                       : 0.222\nStream size                              : 1 000 MiB (78%)\nWriting library                          : x264 core 140 r2377 1ca7bb9\nEncoding settings                        : cabac=1 / ref=4 / deblock=1:-1:-1 / analyse=0x3:0x113 / me=umh / subme=9 / psy=1 / psy_rd=1.00:0.15 / mixed_ref=1 / me_range=18 / chroma_me=1 / trellis=2 / 8x8dct=1 / cqm=0 / deadzone=21,11 / fast_pskip=0 / chroma_qp_offset=-3 / threads=6 / lookahead_threads=1 / sliced_threads=0 / slices=4 / nr=0 / decimate=1 / interlaced=0 / bluray_compat=0 / constrained_intra=0 / bframes=3 / b_pyramid=1 / b_adapt=2 / b_bias=0 / direct=1 / weightb=1 / open_gop=0 / weightp=0 / keyint=23 / keyint_min=1 / scenecut=40 / intra_refresh=0 / rc_lookahead=23 / rc=crf / mbtree=1 / crf=22.0 / qcomp=0.60 / qpmin=10 / qpmax=51 / qpstep=4 / vbv_maxrate=40000 / vbv_bufsize=30000 / crf_max=0.0 / nal_hrd=vbr / filler=0 / ip_ratio=1.40 / aq=1:1.00\nDefault                                  : Yes\nForced                                   : No\nColor primaries                          : BT.709\nTransfer characteristics                 : BT.709\nMatrix coefficients                      : BT.709\n\nAudio\nID                                       : 2\nFormat                                   : AC-3\nFormat/Info                              : Audio Coding 3\nMode extension                           : CM (complete main)\nFormat settings, Endianness              : Big\nCodec ID                                 : A_AC3\nDuration                                 : 1h 31mn\nBit rate mode                            : Constant\nBit rate                                 : 384 Kbps\nChannel(s)                               : 6 channels\nChannel positions                        : Front: L C R, Side: L R, LFE\nSampling rate                            : 48.0 KHz\nBit depth                                : 16 bits\nCompression mode                         : Lossy\nStream size                              : 251 MiB (20%)\nLanguage                                 : English\nDefault                                  : Yes\nForced                                   : No\n\n\n\n\nScreenshots: &lt;a href=&quot;\nhttp://beeimg.com/images/d07665330022.jpg&quot; rel=&quot;nofollow&quot; target=&quot;_NEW&quot;&gt;\nhttp://beeimg.com/images/d07665330022.jpg&lt;/a&gt; &lt;a href=&quot;\nhttp://beeimg.com/images/a97166043671.jpg&quot; rel=&quot;nofollow&quot; target=&quot;_NEW&quot;&gt;\nhttp://beeimg.com/images/a97166043671.jpg&lt;/a&gt;","torrent":{"xt":"urn:btih:ee00d16378060d702a9b50d31ea1feab194119f0","amp;dn":"Shaolin+Warrior+2013+DVDRip+x264+AC3-AVeNGeRZ+%5BP2PDL%5D","amp;tr":["udp%3A%2F%2Ftracker.openbittorrent.com%3A80","udp%3A%2F%2Fopen.demonii.com%3A1337","udp%3A%2F%2Ftracker.coppersurfer.tk%3A6969","udp%3A%2F%2Fexodus.desync.com%3A6969"],"infoHash":"ee00d16378060d702a9b50d31ea1feab194119f0","infoHashBuffer":{"type":"Buffer","data":[238,0,209,99,120,6,13,112,42,155,80,211,30,161,254,171,25,65,25,240]},"announce":[],"urlList":[]}}